HIERARCHY
ROOT RootJoint
{
    OFFSET   0.000000   0.000000   0.000000
    CHANNELS 6 Xposition Yposition Zposition Xrotation Yrotation Zrotation
    JOINT pelvis_lowerback
    {
        OFFSET   0.000000   0.093605   0.000000
        CHANNELS 3 Xrotation Yrotation Zrotation
        JOINT lowerback_torso
        {
            OFFSET   0.000000   0.100000   0.000000
            CHANNELS 3 Xrotation Yrotation Zrotation
            JOINT torso_head
            {
                OFFSET   0.000000   0.282350   0.000000
                CHANNELS 3 Xrotation Yrotation Zrotation
                End Site
                {
                    OFFSET   0.000000   0.192650   0.000000
                }
            }
            JOINT rTorso_Clavicle
            {
                OFFSET  -0.001000   0.157500   0.000000
                CHANNELS 3 Xrotation Yrotation Zrotation
                JOINT rShoulder
                {
                    OFFSET  -0.117647   0.000000   0.000000
                    CHANNELS 3 Xrotation Yrotation Zrotation
                    JOINT rElbow
                    {
                        OFFSET  -0.245000   0.000000   0.000000
                        CHANNELS 3 Xrotation Yrotation Zrotation
                        JOINT rWrist
                        {
                            OFFSET  -0.240000   0.000000   0.000000
                            CHANNELS 3 Xrotation Yrotation Zrotation
                            End Site
                            {
                                OFFSET  -0.116353  -0.002500   0.000000
                            }
                        }
                    }
                }
            }
            JOINT lTorso_Clavicle
            {
                OFFSET   0.001000   0.157500   0.000000
                CHANNELS 3 Xrotation Yrotation Zrotation
                JOINT lShoulder
                {
                    OFFSET   0.117647   0.000000   0.000000
                    CHANNELS 3 Xrotation Yrotation Zrotation
                    JOINT lElbow
                    {
                        OFFSET   0.245000   0.000000   0.000000
                        CHANNELS 3 Xrotation Yrotation Zrotation
                        JOINT lWrist
                        {
                            OFFSET   0.240000   0.000000   0.000000
                            CHANNELS 3 Xrotation Yrotation Zrotation
                            End Site
                            {
                                OFFSET   0.116353  -0.002500   0.000000
                            }
                        }
                    }
                }
            }
        }
    }
    JOINT rHip
    {
        OFFSET  -0.100000  -0.051395   0.000000
        CHANNELS 3 Xrotation Yrotation Zrotation
        JOINT rKnee
        {
            OFFSET   0.000000  -0.410000   0.000000
            CHANNELS 3 Xrotation Yrotation Zrotation
            JOINT rAnkle
            {
                OFFSET   0.000000  -0.390000   0.000000
                CHANNELS 3 Xrotation Yrotation Zrotation
                JOINT rToeJoint
                {
                    OFFSET   0.000000  -0.050000   0.130000
                    CHANNELS 3 Xrotation Yrotation Zrotation
                    End Site
                    {
                        OFFSET  -0.010000   0.002000   0.060000
                    }
                }
            }
        }
    }
    JOINT lHip
    {
        OFFSET   0.100000  -0.051395   0.000000
        CHANNELS 3 Xrotation Yrotation Zrotation
        JOINT lKnee
        {
            OFFSET   0.000000  -0.410000   0.000000
            CHANNELS 3 Xrotation Yrotation Zrotation
            JOINT lAnkle
            {
                OFFSET   0.000000  -0.390000   0.000000
                CHANNELS 3 Xrotation Yrotation Zrotation
                JOINT lToeJoint
                {
                    OFFSET   0.000000  -0.050000   0.130000
                    CHANNELS 3 Xrotation Yrotation Zrotation
                    End Site
                    {
                        OFFSET   0.010000   0.002000   0.060000
                    }
                }
            }
        }
    }
}
MOTION
Frames: 17
Frame Time:   0.008333
 -2.552724   0.897124   7.557501   0.725173  -3.749902   1.667338   1.224802   2.007571  -0.967006  -2.511357   0.216865   1.986066  -2.169494  -0.249352   2.929244   0.970826   1.189227   7.570589   0.128561  14.259742  46.549937  -0.001453  35.577449  -0.003633   6.459220   3.509190  -9.257286   2.631969   0.724246  -6.221687  10.564387 -12.947514 -50.742299   0.000377 -20.422912  -0.000816   6.842062  -2.058765   4.421983   4.179439   2.015897  -2.765060  26.935851   0.005666  -0.003322 -15.408487   0.881713   1.312266 -20.352235   0.005329   0.009955 -20.490515  -3.943375  -3.241508  21.255735   0.000108   0.000483  -4.418109   4.774729   2.700354  -1.009111  -0.000149  -0.000323
 -2.551256   0.898072   7.564920   0.649144  -3.860859   1.855172   1.269534   1.940429  -1.125334  -2.525392   0.249939   2.024628  -2.180656  -0.220661   2.991530   0.988839   1.108592   7.641603   0.307287  14.020192  46.779008  -0.002097  35.045934  -0.004469   6.442219   3.665138  -9.080493   2.673692   0.660111  -6.127877  10.414492 -13.025751 -50.783716   0.000331 -20.398907  -0.000681   6.780837  -1.953032   4.299198   3.266295   1.862112  -3.079626  29.580097   0.004129  -0.010626 -14.306917   0.833494   1.742571 -22.067793   0.006956   0.016493 -19.792134  -4.015863  -3.611730  20.971158  -0.000360   0.001099  -4.325441   4.765957   3.087321  -0.933407  -0.000265  -0.000462
 -2.549914   0.899169   7.572385   0.513035  -3.886494   1.994708   1.324196   1.816966  -1.250921  -2.498599   0.238504   2.077525  -2.180878  -0.193459   3.049481   1.043125   1.007272   7.708731   0.507518  13.773921  46.999081  -0.002608  34.528950  -0.005095   6.411842   3.716000  -8.849441   2.693571   0.583177  -6.028491  10.255759 -13.114022 -50.825525   0.000278 -20.389398  -0.000557   6.725146  -1.904443   4.184978   2.322698   1.673114  -3.336089  32.347459   0.002454  -0.015872 -13.151920   0.761646   2.155277 -22.545152   0.006138   0.015683 -18.985349  -4.125795  -3.940518  20.601070  -0.000877   0.001560  -4.290756   4.748848   3.463038  -0.873783  -0.000320  -0.000494
 -2.548678   0.900258   7.579914   0.363495  -3.849391   2.104132   1.357604   1.662434  -1.356219  -2.465962   0.188068   2.137077  -2.178088  -0.168266   3.103576   1.124015   0.882299   7.768986   0.720481  13.524652  47.207437  -0.002863  34.036356  -0.005603   6.373590   3.705336  -8.596579   2.702839   0.503873  -5.922286  10.099789 -13.202083 -50.860159   0.000228 -20.386109  -0.000449   6.674824  -1.892852   4.083491   1.421118   1.489464  -3.562413  35.017424   0.001339  -0.018454 -11.980644   0.693435   2.554080 -22.011717   0.004086   0.010053 -18.155262  -4.239655  -4.234291  20.215575  -0.001324   0.001693  -4.282073   4.731496   3.816956  -0.825025  -0.000336  -0.000464
 -2.547531   0.901256   7.587469   0.217833  -3.777079   2.199128   1.370053   1.492378  -1.452138  -2.440819   0.113075   2.196748  -2.176632  -0.144913   3.153748   1.218968   0.744166   7.821593   0.936573  13.278280  47.401850  -0.002893  33.569816  -0.005988   6.330964   3.656095  -8.342458   2.704501   0.424792  -5.810450   9.949157 -13.287050 -50.885465   0.000183 -20.386199  -0.000359   6.628080  -1.900991   4.000334   0.571139   1.322235  -3.777502  37.534392   0.000755  -0.019255 -10.817238   0.637729   2.938503 -20.718316   0.001251   0.002530 -17.338573  -4.348461  -4.504539  19.846579  -0.001653   0.001607  -4.281741   4.715609   4.147649  -0.783045  -0.000331  -0.000411
 -2.546463   0.902127   7.595015   0.081754  -3.689273   2.289119   1.366411   1.316467  -1.544521  -2.425773   0.024270   2.252427  -2.177215  -0.123233   3.200002   1.318683   0.601816   7.866931   1.148598  13.039824  47.581962  -0.002762  33.130201  -0.006241   6.286541   3.584033  -8.097011   2.700042   0.346655  -5.695765   9.804448 -13.368282 -50.902082   0.000142 -20.388420  -0.000285   6.584099  -1.920364   3.936358  -0.227923   1.173395  -3.991130  39.884697   0.000507  -0.019057  -9.676833   0.593825   3.306668 -18.858223  -0.002098  -0.005216 -16.550556  -4.450116  -4.759468  19.509079  -0.001855   0.001424  -4.280923   4.701358   4.456011  -0.745784  -0.000315  -0.000355
 -2.545485   0.902865   7.602527  -0.046495  -3.596096   2.377092   1.354092   1.139880  -1.636414  -2.418955  -0.071776   2.302807  -2.179454  -0.103141   3.242689   1.417366   0.461418   7.907157   1.352050  12.812603  47.748956  -0.002537  32.717517  -0.006357   6.242019   3.500144  -7.864282   2.690177   0.269213  -5.581180   9.665450 -13.445978 -50.911288   0.000107 -20.392128  -0.000224   6.542515  -1.946759   3.890093  -0.991442   1.047343  -4.181407  42.050236   0.000161  -0.017937  -8.603984   0.584212   3.659360 -16.982931  -0.005536  -0.010289 -15.791139  -4.545164  -5.001026  19.205182  -0.001947   0.001211  -4.278245   4.688538   4.743446  -0.711709  -0.000294  -0.000302
 -2.544491   0.903774   7.609717  -0.135046  -3.679804   2.481660   1.367924   1.048295  -1.713805  -2.428597  -0.057538   2.336924  -2.212846  -0.042538   3.198287   1.531194   0.379288   7.873121   1.654230  12.652070  47.916253  -0.003068  32.152441  -0.005685   6.218801   3.549668  -7.671586   2.716153   0.173771  -5.465982   9.404835 -13.513286 -50.965257  -0.000349 -20.633355  -0.000024   6.461394  -1.806023   3.856438  -2.065095   0.863114  -4.438911  44.594629  -0.003287  -0.022638  -7.713268   0.296211   3.918257 -15.441546  -0.005883  -0.020059 -14.972773  -4.517306  -5.211348  18.728883  -0.002270   0.001250  -4.311102   4.647226   5.048193  -0.580196  -0.000406  -0.000381
 -2.543599   0.904748   7.616827  -0.234341  -3.769866   2.549013   1.395301   0.943495  -1.755712  -2.423336  -0.054022   2.375911  -2.241588   0.017632   3.151694   1.655122   0.297195   7.832505   1.954075  12.492878  48.069577  -0.003367  31.611902  -0.005189   6.193948   3.533685  -7.430581   2.718420   0.068792  -5.361500   9.137873 -13.594328 -51.026156  -0.000676 -20.876962   0.000225   6.386425  -1.763696   3.841342  -3.158450   0.674014  -4.659682  47.026636  -0.006731  -0.026013  -6.879909   0.025875   4.163433 -14.049512  -0.006646  -0.026566 -14.118263  -4.507177  -5.375289  18.207580  -0.002545   0.001320  -4.378942   4.605327   5.335869  -0.463404  -0.000466  -0.000429
 -2.542804   0.905801   7.623823  -0.324930  -3.800228   2.607868   1.422741   0.803828  -1.792412  -2.415720  -0.086766   2.413855  -2.267390   0.073241   3.108874   1.784650   0.205895   7.795116   2.246271  12.334480  48.212574  -0.003487  31.101272  -0.004822   6.165622   3.481195  -7.186324   2.703040  -0.047197  -5.266563   8.872359 -13.682398 -51.084169  -0.000888 -21.112257   0.000469   6.318149  -1.773693   3.835860  -4.247822   0.493202  -4.860785  49.289024  -0.008920  -0.026820  -6.101888  -0.223664   4.396365 -12.778069  -0.007375  -0.029730 -13.253922  -4.488268  -5.516552  17.660322  -0.002785   0.001010  -4.641560   4.588065   5.587149  -0.343978  -0.000473  -0.000342
 -2.542099   0.906811   7.630744  -0.413523  -3.806746   2.643007   1.451112   0.651983  -1.811092  -2.404388  -0.140678   2.454288  -2.289930   0.125118   3.069278   1.914783   0.109295   7.752448   2.527585  12.179695  48.344004  -0.003427  30.621498  -0.004549   6.135936   3.410359  -6.947298   2.677237  -0.167300  -5.174750   8.613474 -13.773105 -51.140009  -0.001023 -21.337918   0.000690   6.255083  -1.817591   3.834294  -5.318194   0.329837  -5.033968  51.390160  -0.010215  -0.026267  -5.376026  -0.453698   4.616920 -11.617581  -0.007921  -0.030754 -12.393544  -4.488584  -5.628910  17.102145  -0.002950   0.000680  -4.886731   4.554680   5.822970  -0.252164  -0.000450  -0.000272
 -2.541480   0.907742   7.637609  -0.501915  -3.800966   2.662624   1.479834   0.494160  -1.821618  -2.390611  -0.207842   2.495634  -2.309839   0.173466   3.033043   2.042598   0.010487   7.707558   2.796262  12.029914  48.464440  -0.003237  30.171212  -0.004340   6.105913   3.327994  -6.718986   2.645527  -0.287186  -5.085362   8.364893 -13.862661 -51.190897  -0.001096 -21.552054   0.000873   6.196212  -1.880185   3.838385  -6.360489   0.182823  -5.192270  53.340004  -0.010835  -0.025014  -4.698764  -0.665937   4.825416 -10.557702  -0.008228  -0.030414 -11.547406  -4.502182  -5.720809  16.562188  -0.003018   0.000388  -5.132415   4.514913   6.043408  -0.168331  -0.000421  -0.000217
 -2.540938   0.908580   7.644429  -0.589535  -3.786712   2.672336   1.507104   0.333875  -1.828833  -2.375961  -0.283577   2.535594  -2.327731   0.218441   2.999566   2.166713  -0.088660   7.662365   3.051699  11.885961  48.575178  -0.002968  29.748977  -0.004163   6.076040   3.238062  -6.502751   2.610799  -0.404410  -4.998948   8.128316 -13.949255 -51.236729  -0.001120 -21.754031   0.001009   6.140843  -1.952187   3.847954  -7.369271   0.051302  -5.342664  55.148566  -0.010936  -0.023393  -4.066798  -0.861924   5.022259  -9.589217  -0.008300  -0.029201 -10.719715  -4.525229  -5.797873  16.049807  -0.003002   0.000145  -5.384706   4.471319   6.247996  -0.091492  -0.000388  -0.000172
 -2.540530   0.909506   7.651082  -0.683920  -3.754756   2.585234   1.592034   0.190822  -1.757824  -2.381279  -0.311127   2.613835  -2.345182   0.300540   2.934996   2.267983  -0.235199   7.580014   3.374380  11.763019  48.671717  -0.003023  29.226379  -0.003680   6.033937   3.257988  -6.338426   2.591739  -0.526717  -4.917951   7.767791 -14.041489 -51.295260  -0.001531 -22.144086   0.001013   6.065526  -1.897745   3.838590  -8.334061  -0.119131  -5.380829  56.511991  -0.010721  -0.021050  -4.060319  -1.281819   5.095683  -8.777001  -0.007455  -0.028155  -9.884787  -4.494470  -5.747016  15.541071  -0.002933  -0.000474  -5.610124   4.333572   6.361162   0.150813  -0.000322  -0.000136
 -2.540198   0.910385   7.657605  -0.782215  -3.725074   2.477199   1.695942   0.053781  -1.677818  -2.374022  -0.344360   2.700881  -2.357129   0.382130   2.875089   2.374725  -0.380186   7.492574   3.688152  11.638827  48.757526  -0.003002  28.729405  -0.003229   5.989986   3.230199  -6.166803   2.546005  -0.658563  -4.828090   7.405259 -14.144224 -51.345773  -0.001868 -22.526472   0.001082   5.995511  -1.937415   3.868357  -9.319328  -0.281209  -5.401293  57.693110  -0.010233  -0.018788  -4.065970  -1.676370   5.163115  -8.084937  -0.006737  -0.026296  -9.058278  -4.469640  -5.668685  15.042474  -0.002817  -0.000936  -5.831297   4.201097   6.465877   0.148044  -0.000258  -0.000109
 -2.539927   0.911178   7.664052  -0.891641  -3.690264   2.364333   1.812429  -0.089621  -1.599613  -2.353353  -0.391307   2.787541  -2.364310   0.459094   2.819497   2.481018  -0.522343   7.406583   3.987465  11.517714  48.836009  -0.002883  28.262176  -0.002901   5.945864   3.179103  -5.996358   2.488763  -0.793882  -4.732891   7.054801 -14.247397 -51.385563  -0.002093 -22.889604   0.001213   5.931130  -2.017492   3.922865 -10.309978  -0.428870  -5.422327  58.755064  -0.009519  -0.016668  -4.073070  -2.044667   5.225705  -7.455806  -0.006089  -0.024170  -8.238896  -4.454117  -5.583034  14.569050  -0.002664  -0.001256  -6.058891   4.074055   6.562464   0.146132  -0.000206  -0.000087
 -2.539709   0.911877   7.670458  -1.012205  -3.646634   2.252013   1.934105  -0.239772  -1.525428  -2.322835  -0.450903   2.870544  -2.368098   0.530888   2.767412   2.586384  -0.662507   7.323992   4.272588  11.399760  48.908314  -0.002692  27.823442  -0.002677   5.902130   3.114295  -5.831764   2.426955  -0.928154  -4.636539   6.720899 -14.347638 -51.417309  -0.002213 -23.231502   0.001351   5.871201  -2.112712   3.991018 -11.292895  -0.560774  -5.448811  59.720166  -0.008645  -0.014700  -4.080586  -2.388479   5.283832  -6.881808  -0.005473  -0.021932  -7.427575  -4.447996  -5.496280  14.126303  -0.002488  -0.001467  -6.297509   3.950158   6.649773   0.144335  -0.000165  -0.000070
